<?xml version="1.0" encoding="UTF-8"?>
<svg xmlns="http://www.w3.org/2000/svg" xmlns:xlink="http://www.w3.org/1999/xlink" width="120px" height="40px" viewBox="0 0 120 40" version="1.1">
<defs>
<filter id="alpha" filterUnits="objectBoundingBox" x="0%" y="0%" width="100%" height="100%">
  <feColorMatrix type="matrix" in="SourceGraphic" values="0 0 0 0 1 0 0 0 0 1 0 0 0 0 1 0 0 0 1 0"/>
</filter>
<mask id="mask0">
  <g filter="url(#alpha)">
<rect x="0" y="0" width="120" height="40" style="fill:rgb(0%,0%,0%);fill-opacity:0.952941;stroke:none;"/>
  </g>
</mask>
<clipPath id="clip1">
  <rect x="0" y="0" width="120" height="40"/>
</clipPath>
<g id="surface5" clip-path="url(#clip1)">
<path style=" stroke:none;fill-rule:evenodd;fill:rgb(35.686275%,35.686275%,35.686275%);fill-opacity:1;" d="M 3 10.039062 C 3.066406 10.140625 3.171875 10.191406 3.320312 10.199219 C 3.464844 10.191406 3.574219 10.140625 3.640625 10.039062 C 5 10.027344 6.359375 10.039062 7.71875 10.078125 C 7.800781 10.148438 7.878906 10.214844 7.960938 10.28125 C 7.855469 11.917969 7.855469 13.542969 7.960938 15.160156 C 7.925781 15.21875 7.875 15.257812 7.800781 15.28125 C 6.117188 15.347656 4.4375 15.332031 2.761719 15.238281 C 2.691406 13.625 2.664062 12.011719 2.679688 10.398438 C 2.746094 10.242188 2.851562 10.121094 3 10.039062 Z M 3 10.039062 "/>
</g>
<mask id="mask1">
  <g filter="url(#alpha)">
<rect x="0" y="0" width="120" height="40" style="fill:rgb(0%,0%,0%);fill-opacity:0.00392157;stroke:none;"/>
  </g>
</mask>
<clipPath id="clip2">
  <rect x="0" y="0" width="120" height="40"/>
</clipPath>
<g id="surface8" clip-path="url(#clip2)">
<path style=" stroke:none;fill-rule:evenodd;fill:rgb(49.803922%,50.196081%,49.803922%);fill-opacity:1;" d="M 3 10.039062 C 3.214844 10.039062 3.425781 10.039062 3.640625 10.039062 C 3.574219 10.140625 3.464844 10.191406 3.320312 10.199219 C 3.171875 10.191406 3.066406 10.140625 3 10.039062 Z M 3 10.039062 "/>
</g>
<mask id="mask2">
  <g filter="url(#alpha)">
<rect x="0" y="0" width="120" height="40" style="fill:rgb(0%,0%,0%);fill-opacity:0.00392157;stroke:none;"/>
  </g>
</mask>
<clipPath id="clip3">
  <rect x="0" y="0" width="120" height="40"/>
</clipPath>
<g id="surface11" clip-path="url(#clip3)">
<path style=" stroke:none;fill-rule:evenodd;fill:rgb(49.803922%,49.803922%,49.803922%);fill-opacity:1;" d="M 11.71875 10.039062 C 11.71875 10.09375 11.71875 10.148438 11.71875 10.199219 C 11.238281 10.199219 10.761719 10.199219 10.28125 10.199219 C 10.726562 10.042969 11.207031 9.992188 11.71875 10.039062 Z M 11.71875 10.039062 "/>
</g>
<mask id="mask3">
  <g filter="url(#alpha)">
<rect x="0" y="0" width="120" height="40" style="fill:rgb(0%,0%,0%);fill-opacity:0.00784314;stroke:none;"/>
  </g>
</mask>
<clipPath id="clip4">
  <rect x="0" y="0" width="120" height="40"/>
</clipPath>
<g id="surface14" clip-path="url(#clip4)">
<path style=" stroke:none;fill-rule:evenodd;fill:rgb(32.941177%,33.333334%,32.941177%);fill-opacity:1;" d="M 11.71875 10.039062 C 14.734375 10.039062 17.746094 10.039062 20.761719 10.039062 C 17.773438 10.199219 14.761719 10.253906 11.71875 10.199219 C 11.71875 10.148438 11.71875 10.09375 11.71875 10.039062 Z M 11.71875 10.039062 "/>
</g>
<mask id="mask4">
  <g filter="url(#alpha)">
<rect x="0" y="0" width="120" height="40" style="fill:rgb(0%,0%,0%);fill-opacity:0.976471;stroke:none;"/>
  </g>
</mask>
<clipPath id="clip5">
  <rect x="0" y="0" width="120" height="40"/>
</clipPath>
<g id="surface17" clip-path="url(#clip5)">
<path style=" stroke:none;fill-rule:evenodd;fill:rgb(36.078432%,36.078432%,36.078432%);fill-opacity:1;" d="M 20.761719 10.039062 C 21.433594 9.992188 22.089844 10.042969 22.71875 10.199219 C 22.761719 16.867188 22.773438 23.535156 22.761719 30.199219 C 16.09375 30.214844 9.425781 30.199219 2.761719 30.160156 C 2.710938 26.089844 2.699219 21.941406 2.71875 17.71875 C 4.460938 17.640625 6.207031 17.613281 7.960938 17.640625 C 7.882812 20.144531 7.855469 22.652344 7.878906 25.160156 C 11.132812 25.171875 14.386719 25.160156 17.640625 25.121094 C 17.675781 25.085938 17.703125 25.046875 17.71875 25 C 17.675781 21.898438 17.675781 18.792969 17.71875 15.679688 C 17.699219 15.578125 17.644531 15.5 17.558594 15.441406 C 17.585938 15.414062 17.613281 15.386719 17.640625 15.359375 C 15.160156 15.320312 12.679688 15.304688 10.199219 15.320312 C 10.171875 13.597656 10.199219 11.894531 10.28125 10.199219 C 10.761719 10.199219 11.238281 10.199219 11.71875 10.199219 C 14.761719 10.253906 17.773438 10.199219 20.761719 10.039062 Z M 20.761719 10.039062 "/>
</g>
<mask id="mask5">
  <g filter="url(#alpha)">
<rect x="0" y="0" width="120" height="40" style="fill:rgb(0%,0%,0%);fill-opacity:0.00392157;stroke:none;"/>
  </g>
</mask>
<clipPath id="clip6">
  <rect x="0" y="0" width="120" height="40"/>
</clipPath>
<g id="surface20" clip-path="url(#clip6)">
<path style=" stroke:none;fill-rule:evenodd;fill:rgb(0%,0%,0%);fill-opacity:1;" d="M 10.039062 10.28125 C 10.148438 10.332031 10.148438 10.332031 10.039062 10.28125 Z M 10.039062 10.28125 "/>
</g>
<mask id="mask6">
  <g filter="url(#alpha)">
<rect x="0" y="0" width="120" height="40" style="fill:rgb(0%,0%,0%);fill-opacity:0.00392157;stroke:none;"/>
  </g>
</mask>
<clipPath id="clip7">
  <rect x="0" y="0" width="120" height="40"/>
</clipPath>
<g id="surface23" clip-path="url(#clip7)">
<path style=" stroke:none;fill-rule:evenodd;fill:rgb(0%,0%,0%);fill-opacity:1;" d="M 7.960938 15.160156 C 7.945312 13.613281 7.960938 12.066406 8 10.519531 C 8.066406 12.082031 8.054688 13.628906 7.960938 15.160156 Z M 7.960938 15.160156 "/>
</g>
<mask id="mask7">
  <g filter="url(#alpha)">
<rect x="0" y="0" width="120" height="40" style="fill:rgb(0%,0%,0%);fill-opacity:0.952941;stroke:none;"/>
  </g>
</mask>
<clipPath id="clip8">
  <rect x="0" y="0" width="120" height="40"/>
</clipPath>
<g id="surface26" clip-path="url(#clip8)">
<path style=" stroke:none;fill-rule:evenodd;fill:rgb(36.078432%,36.470589%,36.078432%);fill-opacity:1;" d="M 30.839844 15.078125 C 33.714844 15.195312 35.277344 16.6875 35.519531 19.558594 C 35.632812 24.0625 33.484375 25.863281 29.078125 24.960938 C 27.449219 24.222656 26.558594 22.957031 26.398438 21.160156 C 26.175781 19.582031 26.46875 18.117188 27.28125 16.761719 C 28.207031 15.65625 29.394531 15.09375 30.839844 15.078125 Z M 30.761719 16.839844 C 32.492188 16.90625 33.386719 17.8125 33.441406 19.558594 C 33.523438 20.402344 33.441406 21.230469 33.199219 22.039062 C 32.621094 23.21875 31.671875 23.683594 30.359375 23.441406 C 29.175781 23.113281 28.546875 22.328125 28.480469 21.078125 C 28.316406 19.933594 28.476562 18.839844 28.960938 17.800781 C 29.4375 17.234375 30.039062 16.914062 30.761719 16.839844 Z M 30.761719 16.839844 "/>
</g>
<mask id="mask8">
  <g filter="url(#alpha)">
<rect x="0" y="0" width="120" height="40" style="fill:rgb(0%,0%,0%);fill-opacity:0.952941;stroke:none;"/>
  </g>
</mask>
<clipPath id="clip9">
  <rect x="0" y="0" width="120" height="40"/>
</clipPath>
<g id="surface29" clip-path="url(#clip9)">
<path style=" stroke:none;fill-rule:evenodd;fill:rgb(36.078432%,36.470589%,36.078432%);fill-opacity:1;" d="M 64.761719 15.078125 C 67.066406 15.078125 68.546875 16.171875 69.199219 18.359375 C 69.523438 19.851562 69.445312 21.316406 68.960938 22.761719 C 68.117188 24.480469 66.730469 25.308594 64.800781 25.238281 C 62.636719 25.289062 61.195312 24.300781 60.480469 22.28125 C 60.105469 20.894531 60.105469 19.507812 60.480469 18.121094 C 61.210938 16.121094 62.636719 15.109375 64.761719 15.078125 Z M 64.601562 16.839844 C 66.222656 16.875 67.117188 17.703125 67.28125 19.320312 C 67.398438 20.332031 67.292969 21.320312 66.960938 22.28125 C 66.324219 23.300781 65.402344 23.6875 64.199219 23.441406 C 63.390625 23.28125 62.84375 22.816406 62.558594 22.039062 C 62.167969 20.726562 62.195312 19.417969 62.640625 18.121094 C 63.074219 17.351562 63.730469 16.921875 64.601562 16.839844 Z M 64.601562 16.839844 "/>
</g>
<mask id="mask9">
  <g filter="url(#alpha)">
<rect x="0" y="0" width="120" height="40" style="fill:rgb(0%,0%,0%);fill-opacity:0.94902;stroke:none;"/>
  </g>
</mask>
<clipPath id="clip10">
  <rect x="0" y="0" width="120" height="40"/>
</clipPath>
<g id="surface32" clip-path="url(#clip10)">
<path style=" stroke:none;fill-rule:evenodd;fill:rgb(36.078432%,36.470589%,36.078432%);fill-opacity:1;" d="M 85 15.078125 C 86.03125 15.066406 86.992188 15.320312 87.878906 15.839844 C 88.066406 16.027344 88.253906 16.214844 88.441406 16.398438 C 88.101562 16.8125 87.78125 17.238281 87.480469 17.679688 C 87.375 17.734375 87.265625 17.734375 87.160156 17.679688 C 86.183594 16.828125 85.089844 16.640625 83.878906 17.121094 C 83.332031 17.675781 83.359375 18.210938 83.960938 18.71875 C 85.027344 19.003906 86.09375 19.296875 87.160156 19.601562 C 88.25 20.113281 88.785156 20.980469 88.761719 22.199219 C 88.695312 23.90625 87.8125 24.90625 86.121094 25.199219 C 84.617188 25.421875 83.230469 25.128906 81.960938 24.320312 C 81.660156 24.070312 81.417969 23.777344 81.238281 23.441406 C 81.542969 22.902344 81.929688 22.433594 82.398438 22.039062 C 82.730469 22.398438 83.089844 22.730469 83.480469 23.039062 C 84.355469 23.519531 85.261719 23.597656 86.199219 23.28125 C 86.867188 22.675781 86.894531 22.0625 86.28125 21.441406 C 86.050781 21.3125 85.808594 21.203125 85.558594 21.121094 C 84.554688 20.976562 83.59375 20.679688 82.679688 20.238281 C 81.65625 19.457031 81.292969 18.429688 81.601562 17.160156 C 81.878906 16.238281 82.480469 15.640625 83.398438 15.359375 C 83.9375 15.222656 84.46875 15.128906 85 15.078125 Z M 85 15.078125 "/>
</g>
<mask id="mask10">
  <g filter="url(#alpha)">
<rect x="0" y="0" width="120" height="40" style="fill:rgb(0%,0%,0%);fill-opacity:0.945098;stroke:none;"/>
  </g>
</mask>
<clipPath id="clip11">
  <rect x="0" y="0" width="120" height="40"/>
</clipPath>
<g id="surface35" clip-path="url(#clip11)">
<path style=" stroke:none;fill-rule:evenodd;fill:rgb(36.078432%,36.470589%,36.078432%);fill-opacity:1;" d="M 94.519531 15.078125 C 95.785156 15.0625 96.890625 15.460938 97.839844 16.28125 C 98.089844 16.609375 98.292969 16.96875 98.441406 17.359375 C 97.992188 17.738281 97.496094 18.042969 96.960938 18.28125 C 96.71875 18.09375 96.53125 17.855469 96.398438 17.558594 C 95.390625 16.730469 94.308594 16.640625 93.160156 17.28125 C 92.59375 17.714844 92.257812 18.289062 92.160156 19 C 91.921875 20.257812 92.082031 21.457031 92.640625 22.601562 C 93.441406 23.46875 94.417969 23.722656 95.558594 23.359375 C 96.292969 23.050781 96.734375 22.503906 96.878906 21.71875 C 96.925781 21.679688 96.976562 21.652344 97.039062 21.640625 C 97.578125 21.875 98.097656 22.140625 98.601562 22.441406 C 98.144531 24.027344 97.105469 24.949219 95.480469 25.199219 C 92.117188 25.488281 90.289062 23.957031 90 20.601562 C 89.863281 19.09375 90.238281 17.734375 91.121094 16.519531 C 92.058594 15.5625 93.191406 15.082031 94.519531 15.078125 Z M 94.519531 15.078125 "/>
</g>
<mask id="mask11">
  <g filter="url(#alpha)">
<rect x="0" y="0" width="120" height="40" style="fill:rgb(0%,0%,0%);fill-opacity:0.945098;stroke:none;"/>
  </g>
</mask>
<clipPath id="clip12">
  <rect x="0" y="0" width="120" height="40"/>
</clipPath>
<g id="surface38" clip-path="url(#clip12)">
<path style=" stroke:none;fill-rule:evenodd;fill:rgb(36.078432%,36.470589%,36.078432%);fill-opacity:1;" d="M 37.480469 15.238281 C 39.164062 15.207031 40.84375 15.246094 42.519531 15.359375 C 43.738281 15.59375 44.417969 16.328125 44.558594 17.558594 C 44.695312 18.957031 44.09375 19.875 42.761719 20.320312 C 43.199219 20.546875 43.535156 20.878906 43.761719 21.320312 C 44.183594 22.566406 44.625 23.808594 45.078125 25.039062 C 44.359375 25.078125 43.640625 25.09375 42.921875 25.078125 C 42.609375 23.84375 42.195312 22.640625 41.679688 21.480469 C 41.523438 21.289062 41.324219 21.167969 41.078125 21.121094 C 40.574219 21.078125 40.066406 21.066406 39.558594 21.078125 C 39.558594 22.414062 39.558594 23.746094 39.558594 25.078125 C 38.867188 25.078125 38.171875 25.078125 37.480469 25.078125 C 37.480469 21.800781 37.480469 18.519531 37.480469 15.238281 Z M 39.558594 16.839844 C 40.339844 16.8125 41.109375 16.851562 41.878906 16.960938 C 42.382812 17.199219 42.621094 17.597656 42.601562 18.160156 C 42.640625 18.652344 42.453125 19.027344 42.039062 19.28125 C 41.21875 19.394531 40.394531 19.433594 39.558594 19.398438 C 39.558594 18.546875 39.558594 17.695312 39.558594 16.839844 Z M 39.558594 16.839844 "/>
</g>
<mask id="mask12">
  <g filter="url(#alpha)">
<rect x="0" y="0" width="120" height="40" style="fill:rgb(0%,0%,0%);fill-opacity:0.960784;stroke:none;"/>
  </g>
</mask>
<clipPath id="clip13">
  <rect x="0" y="0" width="120" height="40"/>
</clipPath>
<g id="surface41" clip-path="url(#clip13)">
<path style=" stroke:none;fill-rule:evenodd;fill:rgb(36.078432%,36.470589%,36.078432%);fill-opacity:1;" d="M 46.679688 15.238281 C 48.417969 15.207031 50.148438 15.246094 51.878906 15.359375 C 53.496094 15.886719 54.042969 16.964844 53.519531 18.601562 C 53.28125 19.039062 52.945312 19.386719 52.519531 19.640625 C 53.726562 20.039062 54.367188 20.878906 54.441406 22.160156 C 54.394531 23.75 53.59375 24.710938 52.039062 25.039062 C 50.253906 25.078125 48.46875 25.09375 46.679688 25.078125 C 46.679688 21.800781 46.679688 18.519531 46.679688 15.238281 Z M 48.679688 16.761719 C 49.484375 16.730469 50.285156 16.769531 51.078125 16.878906 C 51.570312 17.070312 51.808594 17.429688 51.800781 17.960938 C 51.800781 18.453125 51.585938 18.8125 51.160156 19.039062 C 50.339844 19.152344 49.511719 19.191406 48.679688 19.160156 C 48.679688 18.359375 48.679688 17.558594 48.679688 16.761719 Z M 48.679688 20.679688 C 49.644531 20.644531 50.605469 20.683594 51.558594 20.800781 C 52.140625 21.042969 52.410156 21.484375 52.359375 22.121094 C 52.375 22.6875 52.136719 23.101562 51.640625 23.359375 C 50.660156 23.476562 49.671875 23.515625 48.679688 23.480469 C 48.679688 22.546875 48.679688 21.613281 48.679688 20.679688 Z M 48.679688 20.679688 "/>
</g>
<mask id="mask13">
  <g filter="url(#alpha)">
<rect x="0" y="0" width="120" height="40" style="fill:rgb(0%,0%,0%);fill-opacity:0.92549;stroke:none;"/>
  </g>
</mask>
<clipPath id="clip14">
  <rect x="0" y="0" width="120" height="40"/>
</clipPath>
<g id="surface44" clip-path="url(#clip14)">
<path style=" stroke:none;fill-rule:evenodd;fill:rgb(36.078432%,36.470589%,36.078432%);fill-opacity:1;" d="M 56.199219 15.238281 C 56.894531 15.238281 57.585938 15.238281 58.28125 15.238281 C 58.28125 18.519531 58.28125 21.800781 58.28125 25.078125 C 57.585938 25.078125 56.894531 25.078125 56.199219 25.078125 C 56.199219 21.800781 56.199219 18.519531 56.199219 15.238281 Z M 56.199219 15.238281 "/>
</g>
<mask id="mask14">
  <g filter="url(#alpha)">
<rect x="0" y="0" width="120" height="40" style="fill:rgb(0%,0%,0%);fill-opacity:0.964706;stroke:none;"/>
  </g>
</mask>
<clipPath id="clip15">
  <rect x="0" y="0" width="120" height="40"/>
</clipPath>
<g id="surface47" clip-path="url(#clip15)">
<path style=" stroke:none;fill-rule:evenodd;fill:rgb(36.078432%,36.470589%,36.078432%);fill-opacity:1;" d="M 71.398438 15.238281 C 72.148438 15.226562 72.894531 15.238281 73.640625 15.28125 C 74.964844 17.382812 76.296875 19.476562 77.640625 21.558594 C 77.71875 19.453125 77.746094 17.347656 77.71875 15.238281 C 78.359375 15.238281 79 15.238281 79.640625 15.238281 C 79.640625 18.519531 79.640625 21.800781 79.640625 25.078125 C 78.945312 25.09375 78.253906 25.078125 77.558594 25.039062 C 76.183594 22.832031 74.796875 20.628906 73.398438 18.441406 C 73.320312 20.652344 73.292969 22.867188 73.320312 25.078125 C 72.679688 25.078125 72.039062 25.078125 71.398438 25.078125 C 71.398438 21.800781 71.398438 18.519531 71.398438 15.238281 Z M 71.398438 15.238281 "/>
</g>
<mask id="mask15">
  <g filter="url(#alpha)">
<rect x="0" y="0" width="120" height="40" style="fill:rgb(0%,0%,0%);fill-opacity:0.956863;stroke:none;"/>
  </g>
</mask>
<clipPath id="clip16">
  <rect x="0" y="0" width="120" height="40"/>
</clipPath>
<g id="surface50" clip-path="url(#clip16)">
<path style=" stroke:none;fill-rule:evenodd;fill:rgb(36.078432%,36.470589%,36.078432%);fill-opacity:1;" d="M 102.359375 15.238281 C 103.246094 15.191406 104.113281 15.242188 104.960938 15.398438 C 106.058594 18.601562 107.164062 21.804688 108.28125 25 C 107.5625 25.078125 106.839844 25.105469 106.121094 25.078125 C 105.890625 24.339844 105.675781 23.589844 105.480469 22.839844 C 104.253906 22.828125 103.027344 22.839844 101.800781 22.878906 C 101.519531 23.601562 101.28125 24.332031 101.078125 25.078125 C 100.386719 25.078125 99.695312 25.078125 99 25.078125 C 100.089844 21.789062 101.207031 18.507812 102.359375 15.238281 Z M 103.558594 17.398438 C 103.609375 17.410156 103.648438 17.433594 103.679688 17.480469 C 104.074219 18.707031 104.460938 19.933594 104.839844 21.160156 C 104.011719 21.160156 103.1875 21.160156 102.359375 21.160156 C 102.710938 19.890625 103.113281 18.636719 103.558594 17.398438 Z M 103.558594 17.398438 "/>
</g>
<mask id="mask16">
  <g filter="url(#alpha)">
<rect x="0" y="0" width="120" height="40" style="fill:rgb(0%,0%,0%);fill-opacity:0.964706;stroke:none;"/>
  </g>
</mask>
<clipPath id="clip17">
  <rect x="0" y="0" width="120" height="40"/>
</clipPath>
<g id="surface53" clip-path="url(#clip17)">
<path style=" stroke:none;fill-rule:evenodd;fill:rgb(36.078432%,36.470589%,36.078432%);fill-opacity:1;" d="M 109.640625 15.238281 C 110.386719 15.226562 111.132812 15.238281 111.878906 15.28125 C 113.203125 17.382812 114.539062 19.476562 115.878906 21.558594 C 115.960938 19.453125 115.988281 17.347656 115.960938 15.238281 C 116.601562 15.238281 117.238281 15.238281 117.878906 15.238281 C 117.878906 18.519531 117.878906 21.800781 117.878906 25.078125 C 117.1875 25.09375 116.492188 25.078125 115.800781 25.039062 C 114.421875 22.832031 113.035156 20.628906 111.640625 18.441406 C 111.558594 20.652344 111.535156 22.867188 111.558594 25.078125 C 110.921875 25.078125 110.28125 25.078125 109.640625 25.078125 C 109.640625 21.800781 109.640625 18.519531 109.640625 15.238281 Z M 109.640625 15.238281 "/>
</g>
<mask id="mask17">
  <g filter="url(#alpha)">
<rect x="0" y="0" width="120" height="40" style="fill:rgb(0%,0%,0%);fill-opacity:0.00784314;stroke:none;"/>
  </g>
</mask>
<clipPath id="clip18">
  <rect x="0" y="0" width="120" height="40"/>
</clipPath>
<g id="surface56" clip-path="url(#clip18)">
<path style=" stroke:none;fill-rule:evenodd;fill:rgb(49.019608%,49.019608%,49.019608%);fill-opacity:1;" d="M 2.839844 17.558594 C 4.480469 17.46875 6.132812 17.453125 7.800781 17.519531 C 6.148438 17.558594 4.492188 17.574219 2.839844 17.558594 Z M 2.839844 17.558594 "/>
</g>
<mask id="mask18">
  <g filter="url(#alpha)">
<rect x="0" y="0" width="120" height="40" style="fill:rgb(0%,0%,0%);fill-opacity:0.00392157;stroke:none;"/>
  </g>
</mask>
<clipPath id="clip19">
  <rect x="0" y="0" width="120" height="40"/>
</clipPath>
<g id="surface59" clip-path="url(#clip19)">
<path style=" stroke:none;fill-rule:evenodd;fill:rgb(0%,0%,0%);fill-opacity:1;" d="M 7.960938 18.039062 C 8.054688 20.375 8.066406 22.71875 8 25.078125 C 7.960938 22.734375 7.945312 20.386719 7.960938 18.039062 Z M 7.960938 18.039062 "/>
</g>
<mask id="mask19">
  <g filter="url(#alpha)">
<rect x="0" y="0" width="120" height="40" style="fill:rgb(0%,0%,0%);fill-opacity:0.00392157;stroke:none;"/>
  </g>
</mask>
<clipPath id="clip20">
  <rect x="0" y="0" width="120" height="40"/>
</clipPath>
<g id="surface62" clip-path="url(#clip20)">
<path style=" stroke:none;fill-rule:evenodd;fill:rgb(49.411765%,49.411765%,49.411765%);fill-opacity:1;" d="M 2.921875 30.359375 C 9.492188 30.265625 16.078125 30.253906 22.679688 30.320312 C 16.09375 30.359375 9.507812 30.375 2.921875 30.359375 Z M 2.921875 30.359375 "/>
</g>
</defs>
<g id="surface1">
<use xlink:href="#surface5" mask="url(#mask0)"/>
<use xlink:href="#surface8" mask="url(#mask1)"/>
<use xlink:href="#surface11" mask="url(#mask2)"/>
<use xlink:href="#surface14" mask="url(#mask3)"/>
<use xlink:href="#surface17" mask="url(#mask4)"/>
<use xlink:href="#surface20" mask="url(#mask5)"/>
<use xlink:href="#surface23" mask="url(#mask6)"/>
<use xlink:href="#surface26" mask="url(#mask7)"/>
<use xlink:href="#surface29" mask="url(#mask8)"/>
<use xlink:href="#surface32" mask="url(#mask9)"/>
<use xlink:href="#surface35" mask="url(#mask10)"/>
<use xlink:href="#surface38" mask="url(#mask11)"/>
<use xlink:href="#surface41" mask="url(#mask12)"/>
<use xlink:href="#surface44" mask="url(#mask13)"/>
<use xlink:href="#surface47" mask="url(#mask14)"/>
<use xlink:href="#surface50" mask="url(#mask15)"/>
<use xlink:href="#surface53" mask="url(#mask16)"/>
<use xlink:href="#surface56" mask="url(#mask17)"/>
<use xlink:href="#surface59" mask="url(#mask18)"/>
<use xlink:href="#surface62" mask="url(#mask19)"/>
</g>
</svg>
