<?xml version="1.0" encoding="UTF-8"?>
<svg xmlns="http://www.w3.org/2000/svg" xmlns:xlink="http://www.w3.org/1999/xlink" width="95px" height="32px" viewBox="0 0 96 32" version="1.1">
<defs>
<filter id="alpha" filterUnits="objectBoundingBox" x="0%" y="0%" width="100%" height="100%">
  <feColorMatrix type="matrix" in="SourceGraphic" values="0 0 0 0 1 0 0 0 0 1 0 0 0 0 1 0 0 0 1 0"/>
</filter>
<mask id="mask0">
  <g filter="url(#alpha)">
<rect x="0" y="0" width="96" height="32" style="fill:rgb(0%,0%,0%);fill-opacity:0.666667;stroke:none;"/>
  </g>
</mask>
<clipPath id="clip1">
  <rect x="0" y="0" width="96" height="32"/>
</clipPath>
<g id="surface5" clip-path="url(#clip1)">
<path style=" stroke:none;fill-rule:evenodd;fill:rgb(23.921569%,45.09804%,90.980393%);fill-opacity:1;" d="M 28 4.511719 C 28.019531 4.554688 28.039062 4.597656 28.0625 4.640625 C 23.242188 4.703125 18.421875 4.726562 13.601562 4.703125 C 13.59375 4.640625 13.617188 4.585938 13.664062 4.542969 C 18.441406 4.511719 23.222656 4.5 28 4.511719 Z M 28 4.511719 "/>
</g>
<mask id="mask1">
  <g filter="url(#alpha)">
<rect x="0" y="0" width="96" height="32" style="fill:rgb(0%,0%,0%);fill-opacity:0.545098;stroke:none;"/>
  </g>
</mask>
<clipPath id="clip2">
  <rect x="0" y="0" width="96" height="32"/>
</clipPath>
<g id="surface8" clip-path="url(#clip2)">
<path style=" stroke:none;fill-rule:evenodd;fill:rgb(21.176471%,41.960785%,87.843138%);fill-opacity:1;" d="M 5.152344 4.511719 C 7.054688 4.492188 8.953125 4.511719 10.847656 4.574219 C 10.921875 6.539062 10.933594 8.5 10.878906 10.464844 C 8.933594 10.539062 6.980469 10.550781 5.023438 10.496094 C 4.980469 8.660156 4.9375 6.828125 4.894531 4.992188 C 4.949219 4.925781 4.972656 4.851562 4.960938 4.769531 C 5.085938 6.621094 5.128906 8.5 5.089844 10.398438 C 6.988281 10.398438 8.886719 10.398438 10.785156 10.398438 C 10.785156 8.5 10.785156 6.601562 10.785156 4.703125 C 8.949219 4.714844 7.113281 4.703125 5.28125 4.671875 C 5.222656 4.625 5.179688 4.574219 5.152344 4.511719 Z M 5.152344 4.511719 "/>
</g>
<mask id="mask2">
  <g filter="url(#alpha)">
<rect x="0" y="0" width="96" height="32" style="fill:rgb(0%,0%,0%);fill-opacity:0.968627;stroke:none;"/>
  </g>
</mask>
<clipPath id="clip3">
  <rect x="0" y="0" width="96" height="32"/>
</clipPath>
<g id="surface11" clip-path="url(#clip3)">
<path style=" stroke:none;fill-rule:evenodd;fill:rgb(99.607843%,100%,99.607843%);fill-opacity:1;" d="M 36.703125 10.59375 C 38.082031 10.46875 39.359375 10.757812 40.542969 11.457031 C 41.648438 12.332031 42.300781 13.472656 42.496094 14.878906 C 42.6875 16.242188 42.601562 17.585938 42.238281 18.910156 C 41.359375 21.082031 39.738281 22.148438 37.375 22.113281 C 34.433594 22.027344 32.726562 20.535156 32.257812 17.632812 C 31.992188 15.925781 32.246094 14.304688 33.023438 12.769531 C 33.914062 11.472656 35.140625 10.75 36.703125 10.59375 Z M 36.832031 12.574219 C 38.753906 12.390625 39.875 13.242188 40.191406 15.136719 C 40.371094 16.289062 40.285156 17.417969 39.9375 18.527344 C 39.570312 19.441406 38.898438 19.964844 37.921875 20.097656 C 36.109375 20.316406 35.007812 19.539062 34.625 17.761719 C 34.449219 16.570312 34.511719 15.398438 34.816406 14.238281 C 35.195312 13.316406 35.867188 12.761719 36.832031 12.574219 Z M 36.832031 12.574219 "/>
</g>
<mask id="mask3">
  <g filter="url(#alpha)">
<rect x="0" y="0" width="96" height="32" style="fill:rgb(0%,0%,0%);fill-opacity:0.968627;stroke:none;"/>
  </g>
</mask>
<clipPath id="clip4">
  <rect x="0" y="0" width="96" height="32"/>
</clipPath>
<g id="surface14" clip-path="url(#clip4)">
<path style=" stroke:none;fill-rule:evenodd;fill:rgb(99.607843%,100%,99.607843%);fill-opacity:1;" d="M 75.296875 10.59375 C 76.863281 10.449219 78.269531 10.84375 79.519531 11.777344 C 80.699219 13.0625 81.253906 14.589844 81.183594 16.351562 C 81.246094 17.992188 80.765625 19.441406 79.742188 20.703125 C 78.472656 21.820312 76.992188 22.277344 75.296875 22.078125 C 72.558594 21.707031 71.054688 20.140625 70.785156 17.375 C 70.582031 15.777344 70.839844 14.265625 71.550781 12.832031 C 72.144531 11.898438 72.96875 11.246094 74.015625 10.878906 C 74.445312 10.753906 74.871094 10.65625 75.296875 10.59375 Z M 75.359375 12.574219 C 77.195312 12.367188 78.3125 13.15625 78.71875 14.945312 C 78.894531 16.132812 78.832031 17.304688 78.527344 18.464844 C 78.160156 19.386719 77.488281 19.929688 76.511719 20.097656 C 74.601562 20.296875 73.480469 19.453125 73.152344 17.566406 C 72.972656 16.417969 73.058594 15.285156 73.40625 14.175781 C 73.773438 13.285156 74.421875 12.753906 75.359375 12.574219 Z M 75.359375 12.574219 "/>
</g>
<mask id="mask4">
  <g filter="url(#alpha)">
<rect x="0" y="0" width="96" height="32" style="fill:rgb(0%,0%,0%);fill-opacity:0.976471;stroke:none;"/>
  </g>
</mask>
<clipPath id="clip5">
  <rect x="0" y="0" width="96" height="32"/>
</clipPath>
<g id="surface17" clip-path="url(#clip5)">
<path style=" stroke:none;fill-rule:evenodd;fill:rgb(99.607843%,100%,99.607843%);fill-opacity:1;" d="M 44.894531 10.785156 C 46.6875 10.773438 48.480469 10.785156 50.273438 10.816406 C 51.703125 10.96875 52.570312 11.746094 52.863281 13.152344 C 53.0625 14.222656 52.777344 15.128906 52 15.871094 C 51.632812 16.117188 51.25 16.332031 50.847656 16.511719 C 51.449219 16.828125 51.863281 17.308594 52.097656 17.953125 C 52.566406 19.265625 53.003906 20.585938 53.40625 21.921875 C 52.640625 21.941406 51.871094 21.921875 51.105469 21.855469 C 50.703125 20.683594 50.308594 19.511719 49.921875 18.335938 C 49.738281 17.75 49.34375 17.417969 48.734375 17.34375 C 48.203125 17.3125 47.667969 17.300781 47.136719 17.3125 C 47.136719 18.847656 47.136719 20.382812 47.136719 21.921875 C 46.390625 21.921875 45.644531 21.921875 44.894531 21.921875 C 44.894531 18.207031 44.894531 14.496094 44.894531 10.785156 Z M 47.136719 12.574219 C 47.96875 12.566406 48.800781 12.574219 49.632812 12.609375 C 50.355469 12.804688 50.71875 13.285156 50.71875 14.046875 C 50.707031 14.902344 50.28125 15.382812 49.441406 15.488281 C 48.671875 15.519531 47.90625 15.53125 47.136719 15.519531 C 47.136719 14.539062 47.136719 13.558594 47.136719 12.574219 Z M 47.136719 12.574219 "/>
</g>
<mask id="mask5">
  <g filter="url(#alpha)">
<rect x="0" y="0" width="96" height="32" style="fill:rgb(0%,0%,0%);fill-opacity:0.980392;stroke:none;"/>
  </g>
</mask>
<clipPath id="clip6">
  <rect x="0" y="0" width="96" height="32"/>
</clipPath>
<g id="surface20" clip-path="url(#clip6)">
<path style=" stroke:none;fill-rule:evenodd;fill:rgb(99.607843%,100%,99.607843%);fill-opacity:1;" d="M 55.328125 10.785156 C 57.207031 10.773438 59.082031 10.785156 60.960938 10.816406 C 62.773438 11.179688 63.53125 12.277344 63.230469 14.113281 C 63.019531 14.828125 62.582031 15.359375 61.921875 15.710938 C 63.75 16.386719 64.445312 17.6875 64 19.617188 C 63.578125 20.976562 62.648438 21.734375 61.214844 21.886719 C 59.253906 21.921875 57.289062 21.929688 55.328125 21.921875 C 55.328125 18.207031 55.328125 14.496094 55.328125 10.785156 Z M 57.566406 12.449219 C 58.335938 12.4375 59.105469 12.449219 59.871094 12.480469 C 60.726562 12.535156 61.152344 12.992188 61.152344 13.855469 C 61.140625 14.621094 60.757812 15.058594 60 15.167969 C 59.191406 15.199219 58.378906 15.210938 57.566406 15.199219 C 57.566406 14.28125 57.566406 13.367188 57.566406 12.449219 Z M 57.566406 16.863281 C 58.421875 16.851562 59.273438 16.863281 60.128906 16.894531 C 61.214844 16.894531 61.769531 17.425781 61.792969 18.496094 C 61.847656 19.386719 61.445312 19.917969 60.574219 20.097656 C 59.574219 20.128906 58.570312 20.140625 57.566406 20.128906 C 57.566406 19.039062 57.566406 17.953125 57.566406 16.863281 Z M 57.566406 16.863281 "/>
</g>
<mask id="mask6">
  <g filter="url(#alpha)">
<rect x="0" y="0" width="96" height="32" style="fill:rgb(0%,0%,0%);fill-opacity:0.984314;stroke:none;"/>
  </g>
</mask>
<clipPath id="clip7">
  <rect x="0" y="0" width="96" height="32"/>
</clipPath>
<g id="surface23" clip-path="url(#clip7)">
<path style=" stroke:none;fill-rule:evenodd;fill:rgb(99.607843%,100%,99.607843%);fill-opacity:1;" d="M 66.207031 10.785156 C 66.953125 10.785156 67.699219 10.785156 68.449219 10.785156 C 68.449219 14.496094 68.449219 18.207031 68.449219 21.921875 C 67.699219 21.921875 66.953125 21.921875 66.207031 21.921875 C 66.207031 18.207031 66.207031 14.496094 66.207031 10.785156 Z M 66.207031 10.785156 "/>
</g>
<mask id="mask7">
  <g filter="url(#alpha)">
<rect x="0" y="0" width="96" height="32" style="fill:rgb(0%,0%,0%);fill-opacity:0.968627;stroke:none;"/>
  </g>
</mask>
<clipPath id="clip8">
  <rect x="0" y="0" width="96" height="32"/>
</clipPath>
<g id="surface26" clip-path="url(#clip8)">
<path style=" stroke:none;fill-rule:evenodd;fill:rgb(99.607843%,100%,99.607843%);fill-opacity:1;" d="M 83.425781 10.785156 C 84.300781 10.773438 85.171875 10.785156 86.046875 10.816406 C 87.503906 13.199219 89 15.558594 90.527344 17.886719 C 90.59375 15.519531 90.613281 13.152344 90.59375 10.785156 C 91.339844 10.785156 92.085938 10.785156 92.832031 10.785156 C 92.832031 14.496094 92.832031 18.207031 92.832031 21.921875 C 92.027344 21.941406 91.226562 21.917969 90.433594 21.855469 C 88.878906 19.371094 87.34375 16.875 85.824219 14.367188 C 85.757812 14.3125 85.683594 14.292969 85.601562 14.304688 C 85.601562 16.84375 85.601562 19.382812 85.601562 21.921875 C 84.875 21.921875 84.148438 21.921875 83.425781 21.921875 C 83.425781 18.207031 83.425781 14.496094 83.425781 10.785156 Z M 83.425781 10.785156 "/>
</g>
<mask id="mask8">
  <g filter="url(#alpha)">
<rect x="0" y="0" width="96" height="32" style="fill:rgb(0%,0%,0%);fill-opacity:0.176471;stroke:none;"/>
  </g>
</mask>
<clipPath id="clip9">
  <rect x="0" y="0" width="96" height="32"/>
</clipPath>
<g id="surface29" clip-path="url(#clip9)">
<path style=" stroke:none;fill-rule:evenodd;fill:rgb(22.352941%,41.568628%,81.960785%);fill-opacity:1;" d="M 28.191406 4.574219 C 28.234375 5.664062 28.277344 6.765625 28.320312 7.871094 C 28.261719 13.652344 28.238281 19.445312 28.257812 25.246094 C 28.191406 18.367188 28.171875 11.476562 28.191406 4.574219 Z M 28.191406 4.574219 "/>
</g>
<mask id="mask9">
  <g filter="url(#alpha)">
<rect x="0" y="0" width="96" height="32" style="fill:rgb(0%,0%,0%);fill-opacity:0.109804;stroke:none;"/>
  </g>
</mask>
<clipPath id="clip10">
  <rect x="0" y="0" width="96" height="32"/>
</clipPath>
<g id="surface32" clip-path="url(#clip10)">
<path style=" stroke:none;fill-rule:evenodd;fill:rgb(19.215687%,38.039216%,78.431374%);fill-opacity:1;" d="M 10.847656 13.214844 C 10.910156 16.105469 10.933594 19.007812 10.910156 21.921875 C 10.976562 21.921875 11.039062 21.921875 11.105469 21.921875 C 11.058594 22.027344 10.976562 22.070312 10.847656 22.046875 C 10.847656 19.105469 10.847656 16.160156 10.847656 13.214844 Z M 10.847656 13.214844 "/>
</g>
<mask id="mask10">
  <g filter="url(#alpha)">
<rect x="0" y="0" width="96" height="32" style="fill:rgb(0%,0%,0%);fill-opacity:0.682353;stroke:none;"/>
  </g>
</mask>
<clipPath id="clip11">
  <rect x="0" y="0" width="96" height="32"/>
</clipPath>
<g id="surface35" clip-path="url(#clip11)">
<path style=" stroke:none;fill-rule:evenodd;fill:rgb(19.215687%,41.568628%,88.235295%);fill-opacity:1;" d="M 22.113281 21.921875 C 22.199219 21.921875 22.28125 21.921875 22.367188 21.921875 C 22.367188 18.121094 22.367188 14.324219 22.367188 10.527344 C 19.488281 10.527344 16.609375 10.527344 13.726562 10.527344 C 13.722656 10.464844 13.742188 10.410156 13.792969 10.367188 C 16.691406 10.335938 19.59375 10.324219 22.496094 10.335938 C 22.496094 14.238281 22.496094 18.144531 22.496094 22.046875 C 22.34375 22.058594 22.195312 22.046875 22.046875 22.015625 C 22.082031 21.992188 22.105469 21.960938 22.113281 21.921875 Z M 22.113281 21.921875 "/>
</g>
<mask id="mask11">
  <g filter="url(#alpha)">
<rect x="0" y="0" width="96" height="32" style="fill:rgb(0%,0%,0%);fill-opacity:0.847059;stroke:none;"/>
  </g>
</mask>
<clipPath id="clip12">
  <rect x="0" y="0" width="96" height="32"/>
</clipPath>
<g id="surface38" clip-path="url(#clip12)">
<path style=" stroke:none;fill-rule:evenodd;fill:rgb(21.176471%,42.745098%,89.411765%);fill-opacity:1;" d="M 4.960938 13.28125 C 5.042969 13.316406 5.097656 13.378906 5.121094 13.472656 C 5.171875 18.210938 5.164062 22.945312 5.089844 27.679688 C 12.726562 27.734375 20.363281 27.765625 28 27.777344 C 28.035156 27.800781 28.058594 27.832031 28.0625 27.871094 C 21.34375 27.871094 14.621094 27.894531 7.902344 27.9375 C 6.941406 27.945312 5.980469 27.910156 5.023438 27.839844 C 4.980469 27.085938 4.9375 26.328125 4.894531 25.566406 C 4.960938 21.476562 4.980469 17.378906 4.960938 13.28125 Z M 4.960938 13.28125 "/>
</g>
</defs>
<g id="surface1">
<use xlink:href="#surface5" mask="url(#mask0)"/>
<path style=" stroke:none;fill-rule:evenodd;fill:rgb(14.117648%,39.215687%,91.764706%);fill-opacity:1;" d="M 5.152344 4.511719 C 5.179688 4.574219 5.222656 4.625 5.28125 4.671875 C 7.113281 4.703125 8.949219 4.714844 10.785156 4.703125 C 10.785156 6.601562 10.785156 8.5 10.785156 10.398438 C 8.886719 10.398438 6.988281 10.398438 5.089844 10.398438 C 5.128906 8.5 5.085938 6.621094 4.960938 4.769531 C 4.957031 4.632812 5.023438 4.546875 5.152344 4.511719 Z M 5.152344 4.511719 "/>
<path style=" stroke:none;fill-rule:evenodd;fill:rgb(14.117648%,39.215687%,91.764706%);fill-opacity:1;" d="M 28 4.511719 C 28.070312 4.515625 28.136719 4.535156 28.191406 4.574219 C 28.171875 11.476562 28.191406 18.367188 28.257812 25.246094 C 28.261719 26.117188 28.261719 26.992188 28.257812 27.871094 C 28.191406 27.871094 28.128906 27.871094 28.0625 27.871094 C 28.058594 27.832031 28.035156 27.800781 28 27.777344 C 20.363281 27.765625 12.726562 27.734375 5.089844 27.679688 C 5.164062 22.945312 5.171875 18.210938 5.121094 13.472656 C 5.097656 13.378906 5.042969 13.316406 4.960938 13.28125 C 4.96875 13.242188 4.988281 13.207031 5.023438 13.183594 C 5.523438 13.171875 6.027344 13.164062 6.527344 13.152344 C 7.964844 13.15625 9.402344 13.175781 10.847656 13.214844 C 10.847656 16.160156 10.847656 19.105469 10.847656 22.046875 C 10.976562 22.070312 11.058594 22.027344 11.105469 21.921875 C 14.769531 22.003906 18.441406 22.003906 22.113281 21.921875 C 22.105469 21.960938 22.082031 21.992188 22.046875 22.015625 C 22.195312 22.046875 22.34375 22.058594 22.496094 22.046875 C 22.496094 18.144531 22.496094 14.238281 22.496094 10.335938 C 19.59375 10.324219 16.691406 10.335938 13.792969 10.367188 C 13.742188 10.410156 13.722656 10.464844 13.726562 10.527344 C 13.6875 10.519531 13.65625 10.5 13.632812 10.464844 C 13.621094 10 13.589844 9.542969 13.535156 9.089844 C 13.546875 7.640625 13.566406 6.179688 13.601562 4.703125 C 18.421875 4.726562 23.242188 4.703125 28.0625 4.640625 C 28.039062 4.597656 28.019531 4.554688 28 4.511719 Z M 28 4.511719 "/>
<use xlink:href="#surface8" mask="url(#mask1)"/>
<use xlink:href="#surface11" mask="url(#mask2)"/>
<use xlink:href="#surface14" mask="url(#mask3)"/>
<use xlink:href="#surface17" mask="url(#mask4)"/>
<use xlink:href="#surface20" mask="url(#mask5)"/>
<use xlink:href="#surface23" mask="url(#mask6)"/>
<use xlink:href="#surface26" mask="url(#mask7)"/>
<use xlink:href="#surface29" mask="url(#mask8)"/>
<use xlink:href="#surface32" mask="url(#mask9)"/>
<use xlink:href="#surface35" mask="url(#mask10)"/>
<use xlink:href="#surface38" mask="url(#mask11)"/>
</g>
</svg>
