<?xml version="1.0" encoding="UTF-8"?>
<svg xmlns="http://www.w3.org/2000/svg" xmlns:xlink="http://www.w3.org/1999/xlink" width="30px" height="30px" viewBox="0 0 30 30" version="1.1">
<defs>
<filter id="alpha" filterUnits="objectBoundingBox" x="0%" y="0%" width="100%" height="100%">
  <feColorMatrix type="matrix" in="SourceGraphic" values="0 0 0 0 1 0 0 0 0 1 0 0 0 0 1 0 0 0 1 0"/>
</filter>
<mask id="mask0">
  <g filter="url(#alpha)">
<rect x="0" y="0" width="30" height="30" style="fill:rgb(0%,0%,0%);fill-opacity:0.568627;stroke:none;"/>
  </g>
</mask>
<clipPath id="clip1">
  <rect x="0" y="0" width="30" height="30"/>
</clipPath>
<g id="surface5" clip-path="url(#clip1)">
<path style=" stroke:none;fill-rule:evenodd;fill:rgb(24.705882%,45.09804%,90.196079%);fill-opacity:1;" d="M 3.988281 4.351562 C 5.757812 4.289062 7.539062 4.269531 9.328125 4.289062 C 9.328125 4.328125 9.328125 4.371094 9.328125 4.410156 C 7.546875 4.429688 5.765625 4.410156 3.988281 4.351562 Z M 3.988281 4.351562 "/>
</g>
<mask id="mask1">
  <g filter="url(#alpha)">
<rect x="0" y="0" width="30" height="30" style="fill:rgb(0%,0%,0%);fill-opacity:0.584314;stroke:none;"/>
  </g>
</mask>
<clipPath id="clip2">
  <rect x="0" y="0" width="30" height="30"/>
</clipPath>
<g id="surface8" clip-path="url(#clip2)">
<path style=" stroke:none;fill-rule:evenodd;fill:rgb(25.882354%,47.450981%,93.333334%);fill-opacity:1;" d="M 12.148438 4.289062 C 13.488281 4.289062 14.828125 4.289062 16.171875 4.289062 C 19.328125 4.328125 22.488281 4.371094 25.648438 4.410156 C 21.148438 4.410156 16.648438 4.410156 12.148438 4.410156 C 12.148438 4.371094 12.148438 4.328125 12.148438 4.289062 Z M 12.148438 4.289062 "/>
</g>
<mask id="mask2">
  <g filter="url(#alpha)">
<rect x="0" y="0" width="30" height="30" style="fill:rgb(0%,0%,0%);fill-opacity:0.698039;stroke:none;"/>
  </g>
</mask>
<clipPath id="clip3">
  <rect x="0" y="0" width="30" height="30"/>
</clipPath>
<g id="surface11" clip-path="url(#clip3)">
<path style=" stroke:none;fill-rule:evenodd;fill:rgb(21.176471%,43.137255%,89.019608%);fill-opacity:1;" d="M 3.929688 4.46875 C 4.050781 6.207031 4.089844 7.96875 4.050781 9.75 C 5.820312 9.808594 7.601562 9.828125 9.390625 9.808594 C 7.601562 9.878906 5.800781 9.890625 3.988281 9.839844 C 3.949219 8.773438 3.910156 7.703125 3.871094 6.628906 C 3.898438 5.910156 3.917969 5.191406 3.929688 4.46875 Z M 3.929688 4.46875 "/>
</g>
<mask id="mask3">
  <g filter="url(#alpha)">
<rect x="0" y="0" width="30" height="30" style="fill:rgb(0%,0%,0%);fill-opacity:0.952941;stroke:none;"/>
  </g>
</mask>
<clipPath id="clip4">
  <rect x="0" y="0" width="30" height="30"/>
</clipPath>
<g id="surface14" clip-path="url(#clip4)">
<path style=" stroke:none;fill-rule:evenodd;fill:rgb(20%,41.568628%,89.411765%);fill-opacity:1;" d="M 9.328125 4.289062 C 9.367188 4.296875 9.398438 4.316406 9.421875 4.351562 C 9.46875 6.179688 9.460938 8 9.390625 9.808594 C 7.601562 9.828125 5.820312 9.808594 4.050781 9.75 C 5.804688 9.691406 7.566406 9.671875 9.328125 9.691406 C 9.328125 7.929688 9.328125 6.171875 9.328125 4.410156 C 9.328125 4.371094 9.328125 4.328125 9.328125 4.289062 Z M 9.328125 4.289062 "/>
</g>
<mask id="mask4">
  <g filter="url(#alpha)">
<rect x="0" y="0" width="30" height="30" style="fill:rgb(0%,0%,0%);fill-opacity:0.0705882;stroke:none;"/>
  </g>
</mask>
<clipPath id="clip5">
  <rect x="0" y="0" width="30" height="30"/>
</clipPath>
<g id="surface17" clip-path="url(#clip5)">
<path style=" stroke:none;fill-rule:evenodd;fill:rgb(20.784314%,41.960785%,85.490197%);fill-opacity:1;" d="M 20.308594 20.730469 C 20.25 20.730469 20.191406 20.730469 20.128906 20.730469 C 20.128906 20.691406 20.128906 20.648438 20.128906 20.609375 C 20.25 17.050781 20.289062 13.46875 20.25 9.871094 C 17.519531 9.890625 14.800781 9.871094 12.089844 9.808594 C 14.824219 9.738281 17.566406 9.738281 20.308594 9.808594 C 20.308594 13.449219 20.308594 17.089844 20.308594 20.730469 Z M 20.308594 20.730469 "/>
</g>
<mask id="mask5">
  <g filter="url(#alpha)">
<rect x="0" y="0" width="30" height="30" style="fill:rgb(0%,0%,0%);fill-opacity:0.27451;stroke:none;"/>
  </g>
</mask>
<clipPath id="clip6">
  <rect x="0" y="0" width="30" height="30"/>
</clipPath>
<g id="surface20" clip-path="url(#clip6)">
<path style=" stroke:none;fill-rule:evenodd;fill:rgb(19.215687%,38.431373%,78.039217%);fill-opacity:1;" d="M 9.390625 12.449219 C 9.449219 15.160156 9.46875 17.878906 9.449219 20.609375 C 9.566406 20.59375 9.664062 20.613281 9.75 20.671875 C 9.710938 20.671875 9.691406 20.691406 9.691406 20.730469 C 9.589844 20.730469 9.488281 20.730469 9.390625 20.730469 C 9.390625 17.96875 9.390625 15.210938 9.390625 12.449219 Z M 9.390625 12.449219 "/>
</g>
<mask id="mask6">
  <g filter="url(#alpha)">
<rect x="0" y="0" width="30" height="30" style="fill:rgb(0%,0%,0%);fill-opacity:0.145098;stroke:none;"/>
  </g>
</mask>
<clipPath id="clip7">
  <rect x="0" y="0" width="30" height="30"/>
</clipPath>
<g id="surface23" clip-path="url(#clip7)">
<path style=" stroke:none;fill-rule:evenodd;fill:rgb(23.921569%,47.450981%,87.450981%);fill-opacity:1;" d="M 3.929688 14.730469 C 3.96875 15.316406 3.988281 15.90625 3.988281 16.5 C 3.988281 17.070312 3.949219 17.621094 3.871094 18.148438 C 3.925781 17.003906 3.945312 15.863281 3.929688 14.730469 Z M 3.929688 14.730469 "/>
</g>
<mask id="mask7">
  <g filter="url(#alpha)">
<rect x="0" y="0" width="30" height="30" style="fill:rgb(0%,0%,0%);fill-opacity:0.701961;stroke:none;"/>
  </g>
</mask>
<clipPath id="clip8">
  <rect x="0" y="0" width="30" height="30"/>
</clipPath>
<g id="surface26" clip-path="url(#clip8)">
<path style=" stroke:none;fill-rule:evenodd;fill:rgb(18.039216%,41.568628%,90.196079%);fill-opacity:1;" d="M 12.148438 4.289062 C 12.148438 4.328125 12.148438 4.371094 12.148438 4.410156 C 12.148438 6.171875 12.148438 7.929688 12.148438 9.691406 C 14.890625 9.691406 17.628906 9.691406 20.371094 9.691406 C 20.390625 13.378906 20.371094 17.058594 20.308594 20.730469 C 20.308594 17.089844 20.308594 13.449219 20.308594 9.808594 C 17.566406 9.738281 14.824219 9.738281 12.089844 9.808594 C 12.046875 9.398438 12.007812 8.976562 11.96875 8.550781 C 11.992188 7.585938 11.992188 6.625 11.96875 5.671875 C 11.980469 5.308594 11.988281 4.949219 12 4.589844 C 12.003906 4.457031 12.054688 4.355469 12.148438 4.289062 Z M 12.148438 4.289062 "/>
</g>
<mask id="mask8">
  <g filter="url(#alpha)">
<rect x="0" y="0" width="30" height="30" style="fill:rgb(0%,0%,0%);fill-opacity:0.207843;stroke:none;"/>
  </g>
</mask>
<clipPath id="clip9">
  <rect x="0" y="0" width="30" height="30"/>
</clipPath>
<g id="surface29" clip-path="url(#clip9)">
<path style=" stroke:none;fill-rule:evenodd;fill:rgb(20.392157%,39.215687%,78.431374%);fill-opacity:1;" d="M 16.171875 4.289062 C 19.363281 4.269531 22.554688 4.289062 25.738281 4.351562 C 25.75 5.363281 25.78125 6.371094 25.828125 7.378906 C 25.757812 12.886719 25.757812 18.417969 25.828125 23.96875 C 25.8125 24.710938 25.75 25.429688 25.648438 26.128906 C 25.648438 26.109375 25.648438 26.089844 25.648438 26.070312 C 25.730469 18.851562 25.730469 11.628906 25.648438 4.410156 C 22.488281 4.371094 19.328125 4.328125 16.171875 4.289062 Z M 16.171875 4.289062 "/>
</g>
<mask id="mask9">
  <g filter="url(#alpha)">
<rect x="0" y="0" width="30" height="30" style="fill:rgb(0%,0%,0%);fill-opacity:0.737255;stroke:none;"/>
  </g>
</mask>
<clipPath id="clip10">
  <rect x="0" y="0" width="30" height="30"/>
</clipPath>
<g id="surface32" clip-path="url(#clip10)">
<path style=" stroke:none;fill-rule:evenodd;fill:rgb(22.352941%,44.705883%,90.588236%);fill-opacity:1;" d="M 7.109375 12.390625 C 6.101562 12.441406 5.078125 12.480469 4.050781 12.511719 C 4.03125 17.054688 4.050781 21.59375 4.109375 26.128906 C 4.050781 26.128906 3.988281 26.128906 3.929688 26.128906 C 3.902344 25.992188 3.878906 25.851562 3.871094 25.710938 C 3.949219 24.832031 3.988281 23.929688 3.988281 23.011719 C 3.980469 22.109375 3.96875 21.210938 3.960938 20.308594 C 3.9375 20.277344 3.90625 20.257812 3.871094 20.25 C 3.878906 19.542969 3.878906 18.84375 3.871094 18.148438 C 3.949219 17.621094 3.988281 17.070312 3.988281 16.5 C 3.988281 15.90625 3.96875 15.316406 3.929688 14.730469 C 3.945312 14.59375 3.925781 14.460938 3.871094 14.339844 C 3.910156 13.699219 3.949219 13.058594 3.988281 12.421875 C 5.03125 12.390625 6.070312 12.378906 7.109375 12.390625 Z M 7.109375 12.390625 "/>
</g>
<mask id="mask10">
  <g filter="url(#alpha)">
<rect x="0" y="0" width="30" height="30" style="fill:rgb(0%,0%,0%);fill-opacity:0.188235;stroke:none;"/>
  </g>
</mask>
<clipPath id="clip11">
  <rect x="0" y="0" width="30" height="30"/>
</clipPath>
<g id="surface35" clip-path="url(#clip11)">
<path style=" stroke:none;fill-rule:evenodd;fill:rgb(11.372549%,34.901962%,83.137256%);fill-opacity:1;" d="M 20.128906 20.609375 C 20.128906 20.648438 20.128906 20.691406 20.128906 20.730469 C 16.648438 20.730469 13.171875 20.730469 9.691406 20.730469 C 9.691406 20.691406 9.710938 20.671875 9.75 20.671875 C 13.210938 20.6875 16.671875 20.667969 20.128906 20.609375 Z M 20.128906 20.609375 "/>
</g>
<mask id="mask11">
  <g filter="url(#alpha)">
<rect x="0" y="0" width="30" height="30" style="fill:rgb(0%,0%,0%);fill-opacity:0.180392;stroke:none;"/>
  </g>
</mask>
<clipPath id="clip12">
  <rect x="0" y="0" width="30" height="30"/>
</clipPath>
<g id="surface38" clip-path="url(#clip12)">
<path style=" stroke:none;fill-rule:evenodd;fill:rgb(23.529412%,45.490196%,85.490197%);fill-opacity:1;" d="M 3.871094 20.25 C 3.90625 20.257812 3.9375 20.277344 3.960938 20.308594 C 3.96875 21.210938 3.980469 22.109375 3.988281 23.011719 C 3.988281 23.929688 3.949219 24.832031 3.871094 25.710938 C 3.871094 23.890625 3.871094 22.070312 3.871094 20.25 Z M 3.871094 20.25 "/>
</g>
<mask id="mask12">
  <g filter="url(#alpha)">
<rect x="0" y="0" width="30" height="30" style="fill:rgb(0%,0%,0%);fill-opacity:0.607843;stroke:none;"/>
  </g>
</mask>
<clipPath id="clip13">
  <rect x="0" y="0" width="30" height="30"/>
</clipPath>
<g id="surface41" clip-path="url(#clip13)">
<path style=" stroke:none;fill-rule:evenodd;fill:rgb(22.745098%,40.784314%,85.882354%);fill-opacity:1;" d="M 25.648438 26.070312 C 25.648438 26.089844 25.648438 26.109375 25.648438 26.128906 C 18.5 26.128906 11.339844 26.148438 4.171875 26.191406 C 4.175781 26.152344 4.195312 26.121094 4.230469 26.101562 C 11.371094 26.070312 18.511719 26.058594 25.648438 26.070312 Z M 25.648438 26.070312 "/>
</g>
</defs>
<g id="surface1">
<use xlink:href="#surface5" mask="url(#mask0)"/>
<use xlink:href="#surface8" mask="url(#mask1)"/>
<path style=" stroke:none;fill-rule:evenodd;fill:rgb(14.117648%,39.215687%,92.156863%);fill-opacity:1;" d="M 3.988281 4.351562 C 5.765625 4.410156 7.546875 4.429688 9.328125 4.410156 C 9.328125 6.171875 9.328125 7.929688 9.328125 9.691406 C 7.566406 9.671875 5.804688 9.691406 4.050781 9.75 C 4.089844 7.96875 4.050781 6.207031 3.929688 4.46875 C 3.917969 4.410156 3.941406 4.371094 3.988281 4.351562 Z M 3.988281 4.351562 "/>
<path style=" stroke:none;fill-rule:evenodd;fill:rgb(14.117648%,39.215687%,91.764706%);fill-opacity:1;" d="M 12.148438 4.410156 C 16.648438 4.410156 21.148438 4.410156 25.648438 4.410156 C 25.730469 11.628906 25.730469 18.851562 25.648438 26.070312 C 18.511719 26.058594 11.371094 26.070312 4.230469 26.101562 C 4.195312 26.121094 4.175781 26.152344 4.171875 26.191406 C 4.128906 26.191406 4.109375 26.171875 4.109375 26.128906 C 4.050781 21.59375 4.03125 17.054688 4.050781 12.511719 C 5.078125 12.480469 6.101562 12.441406 7.109375 12.390625 C 7.878906 12.371094 8.640625 12.390625 9.390625 12.449219 C 9.390625 15.210938 9.390625 17.96875 9.390625 20.730469 C 9.488281 20.730469 9.589844 20.730469 9.691406 20.730469 C 13.171875 20.730469 16.648438 20.730469 20.128906 20.730469 C 20.191406 20.730469 20.25 20.730469 20.308594 20.730469 C 20.371094 17.058594 20.390625 13.378906 20.371094 9.691406 C 17.628906 9.691406 14.890625 9.691406 12.148438 9.691406 C 12.148438 7.929688 12.148438 6.171875 12.148438 4.410156 Z M 12.148438 4.410156 "/>
<use xlink:href="#surface11" mask="url(#mask2)"/>
<use xlink:href="#surface14" mask="url(#mask3)"/>
<use xlink:href="#surface17" mask="url(#mask4)"/>
<use xlink:href="#surface20" mask="url(#mask5)"/>
<use xlink:href="#surface23" mask="url(#mask6)"/>
<use xlink:href="#surface26" mask="url(#mask7)"/>
<use xlink:href="#surface29" mask="url(#mask8)"/>
<use xlink:href="#surface32" mask="url(#mask9)"/>
<use xlink:href="#surface35" mask="url(#mask10)"/>
<use xlink:href="#surface38" mask="url(#mask11)"/>
<use xlink:href="#surface41" mask="url(#mask12)"/>
</g>
</svg>
